<?xml version="1.0" standalone="no"?>
<!DOCTYPE svg PUBLIC "-//W3C//DTD SVG 20010904//EN" "http://www.w3.org/TR/2001/REC-SVG-20010904/DTD/svg10.dtd">
<svg version="1.0" xmlns="http://www.w3.org/2000/svg" width="512.000000pt" height="512.000000pt"
    viewBox="0 0 512.000000 512.000000" preserveAspectRatio="xMidYMid meet">
    <g transform="translate(0.000000,512.000000) scale(0.100000,-0.100000)" fill="#000000" stroke="none">
        <path d="M2380 5114 c-19 -2 -78 -9 -130 -14 -330 -36 -695 -160 -990 -336 -375 -224 -680 -529 -904 -904 -175 -292 -291 -632 -338 -990 -16 -123 -16 -497 0 -620 82 -623 356 -1150 820 -1581 256 -239 575 -425 922 -539 274 -91 491 -124 800 -124 228 0 329 9 530 50 689 141 1304 583 1674 1204 175 292 291 632 338 990 16 123 16 497 0 620 -47 358 -163 698 -338 990 -224 375 -529 680 -904 904 -289 173 -634 291 -980 336 -88 12 -438 21 -500 14z m573 -193 c261 -46 436 -103 665 -216 610 -300 1069 -853 1247 -1501 67 -243 80 -348 80 -644 0 -233 -3 -281 -23 -393 -89 -495 -303 -919 -642 -1271 -301 -313 -718 -555 -1132 -656 -229 -56 -310 -65 -593 -65 -290 1 -399 14 -639 80 -648 177 -1202 638 -1501 1247 -115 233 -177 429 -222 695 -26 154 -26 572 0 726 45 266 107 462 222 695 338 689 992 1176 1747 1301 175 29 178 29 438 26 186 -2 260 -7 353 -24z" />
        <path d="M3327 3883 c-165 -164 -314 -320 -331 -348 -53 -82 -67 -130 -73 -250 l-6 -110 -83 -86 c-70 -72 -84 -92 -84 -118 0 -43 14 -66 48 -80 42 -18 74 -1 164 87 123 118 120 113 127 266 5 109 10 138 29 176 15 29 125 147 312 335 158 160 293 300 299 312 15 30 4 69 -26 93 -54 42 -56 41 -376 -277z" />
        <path d="M1295 4050 c-51 -21 -109 -127 -140 -257 -24 -98 -16 -295 15 -403 43 -150 141 -328 263 -480 81 -100 770 -794 825 -830 97 -65 215 -62 318 6 l56 37 54 -54 54 -55 -16 -67 c-21 -83 -9 -157 35 -226 17 -25 173 -189 349 -363 370 -368 376 -373 522 -373 66 0 96 5 132 22 66 30 133 96 165 162 24 48 28 68 28 141 0 159 108 39 -1309 1458 -694 695 -1273 1270 -1288 1278 -30 16 -35 16 -63 4z m2482 -2665 c40 -73 4 -183 -70 -218 -43 -21 -119 -22 -155 -3 -15 8 -171 159 -347 335 l-320 321 1 47 c1 27 5 80 9 120 9 87 1 104 -104 207 -55 54 -79 71 -117 81 -62 16 -111 5 -176 -40 -37 -26 -61 -35 -92 -35 -41 0 -43 2 -441 402 -290 292 -418 428 -464 493 -72 102 -152 261 -175 350 -33 121 -31 269 4 359 l11 30 1210 -1210 c666 -665 1218 -1222 1226 -1239z" />
        <path d="M3845 3876 c-16 -8 -153 -137 -302 -288 -253 -254 -273 -277 -273 -310 0 -59 58 -98 113 -74 18 8 155 137 305 288 253 254 272 276 272 309 0 33 -29 79 -50 79 -4 0 -14 2 -22 5 -7 2 -26 -2 -43 -9z" />
        <path d="M3856 3351 c-166 -164 -317 -307 -336 -317 -28 -15 -65 -20 -188 -24 l-153 -5 -109 -111 c-94 -95 -110 -115 -110 -143 0 -43 38 -81 81 -81 26 0 46 14 118 85 l87 85 100 0 c113 0 196 18 264 57 25 14 181 161 347 327 337 335 341 340 285 396 -58 58 -55 60 -386 -269z" />
        <path d="M1477 1873 c-402 -402 -411 -414 -411 -553 0 -68 5 -87 33 -144 62 -126 172 -191 311 -184 135 7 134 6 543 416 404 405 396 394 337 454 -56 56 -57 56 -445 -332 -406 -405 -415 -411 -522 -359 -80 39 -116 144 -77 222 9 18 169 185 355 372 306 308 339 344 339 373 0 44 -38 82 -82 82 -29 0 -65 -33 -381 -347z" />
    </g>
</svg>